<?xml version="1.0" standalone="no"?>
<!DOCTYPE svg PUBLIC "-//W3C//DTD SVG 20010904//EN"
 "http://www.w3.org/TR/2001/REC-SVG-20010904/DTD/svg10.dtd">
<svg version="1.0" xmlns="http://www.w3.org/2000/svg"
 width="700.000000pt" height="700.000000pt" viewBox="0 0 700.000000 700.000000"
 preserveAspectRatio="xMidYMid meet">
<metadata>
Created by potrace 1.11, written by Peter Selinger 2001-2013
</metadata>
<g transform="translate(0.000000,700.000000) scale(0.100000,-0.100000)"
fill="#000000" stroke="none">
<path d="M3579 6996 c-2 -2 -40 -6 -84 -10 -108 -8 -160 -15 -290 -37 -147
-24 -155 -26 -268 -55 -500 -127 -945 -352 -1362 -688 -174 -141 -449 -425
-571 -591 -16 -22 -31 -42 -34 -45 -15 -15 -137 -201 -195 -298 -69 -117 -195
-372 -235 -477 -12 -33 -28 -73 -35 -90 -16 -38 -78 -236 -104 -335 -27 -101
-61 -277 -77 -395 -3 -27 -8 -58 -9 -67 -25 -132 -25 -654 0 -810 2 -13 7 -45
10 -73 4 -27 8 -63 11 -80 2 -16 6 -41 9 -55 2 -14 7 -39 10 -56 13 -84 91
-370 130 -478 146 -411 351 -774 624 -1101 91 -109 297 -318 404 -409 261
-223 596 -433 897 -561 36 -15 79 -33 95 -40 115 -50 464 -153 590 -175 28 -5
88 -16 135 -24 47 -8 112 -17 145 -21 33 -3 94 -10 135 -14 75 -8 550 -7 603
2 15 3 55 8 90 11 52 6 188 28 312 51 321 61 753 233 1082 431 122 74 375 251
403 283 3 3 34 31 70 61 87 73 85 71 105 110 22 42 16 107 -14 148 -31 44 -83
61 -192 61 -52 0 -103 0 -115 0 -20 1 -21 6 -20 144 l1 142 370 2 c224 2 385
7 407 13 24 7 48 24 65 47 l28 36 3 467 c3 520 3 522 -61 574 l-38 31 -517 1
c-284 1 -525 2 -535 3 -17 1 -18 20 -17 314 1 171 1 335 1 362 l-1 50 -2475 0
-2475 -1 -1 36 c-4 103 -4 189 1 220 l5 35 2710 1 c2503 0 2712 2 2742 17 17
9 41 33 54 54 23 37 23 43 25 338 1 165 2 305 3 310 1 7 76 10 219 10 230 -1
273 4 311 38 49 45 51 64 51 404 0 360 -1 368 -76 410 -38 22 -44 23 -420 23
l-380 0 0 290 c0 198 3 290 10 291 6 0 63 1 126 3 100 1 120 4 151 24 48 29
73 81 66 138 -5 52 -21 72 -117 155 -240 206 -458 350 -745 489 -215 105 -519
221 -642 244 -10 2 -36 9 -58 14 -22 6 -51 13 -65 16 -14 3 -70 14 -125 25
-89 17 -186 32 -302 46 -47 6 -549 15 -554 11z m-384 -880 c33 -4 94 -16 135
-28 333 -92 596 -343 703 -673 15 -44 29 -102 33 -130 3 -27 8 -53 11 -57 7
-12 5 -197 -2 -253 -4 -27 -11 -68 -17 -90 -5 -22 -12 -48 -14 -58 -7 -39 -47
-135 -84 -204 -219 -408 -696 -622 -1135 -509 -109 28 -190 58 -246 94 -20 12
-41 22 -47 22 -6 0 -12 3 -14 8 -1 4 -23 21 -48 37 -216 146 -386 426 -418
690 -31 261 25 499 169 715 113 171 322 328 521 394 136 45 299 60 453 42z
m-1538 -876 c15 -6 40 -25 55 -41 63 -71 42 -181 -44 -225 -41 -21 -374 -22
-415 0 -111 57 -112 202 -2 258 28 15 62 18 206 18 94 0 184 -5 200 -10z
m3663 -11 c97 -55 98 -193 1 -250 -32 -19 -52 -20 -356 -20 -340 -1 -368 3
-406 47 -27 31 -42 88 -35 128 8 41 62 102 98 109 13 2 166 5 342 6 306 1 320
0 356 -20z m-2761 -2338 c90 -65 83 -195 -14 -245 -39 -21 -50 -21 -731 -21
l-691 1 -38 28 c-64 49 -82 123 -44 186 26 42 45 57 84 68 17 5 338 8 715 8
l685 -1 34 -24z m2468 -284 c38 -20 71 -71 76 -119 5 -48 -26 -105 -73 -132
-33 -20 -52 -21 -285 -22 -296 -1 -316 4 -355 90 -32 69 -3 146 66 181 37 20
57 21 290 20 211 -1 254 -4 281 -18z m-3094 -571 c88 -16 136 -140 84 -217
-45 -67 -54 -69 -417 -69 -307 0 -327 1 -358 20 -52 32 -74 76 -69 138 3 45 9
59 39 89 30 30 45 36 94 42 74 8 582 5 627 -3z"/>
<path d="M2926 5520 c-316 -112 -402 -518 -157 -739 88 -80 179 -111 309 -108
85 2 105 6 162 34 171 82 263 232 256 413 -7 178 -113 329 -273 390 -86 33
-219 37 -297 10z"/>
</g>
</svg>
